<svg id="Capa_1" data-name="Capa 1" xmlns="http://www.w3.org/2000/svg" viewBox="0 0 960 560">
  <defs>
    <style>
      .cls-1 {
        fill: silver;
      }
    </style>
  </defs>
  <title>LogoTransparenteGris-01</title>
  <path id="path266-1-0-0-3-4-9" class="cls-1" d="M23.33,115.61992c-9.03595-2.05-14.69694-1.509-14.61418-3.91346,0.16221-2.98952,21.4613-.2758,29.819-5.8451,5.70968-3.80653,8.87373-8.11714,11.14683-17.01762,3.30674-13.28685,3.82269-21.54213,5.90928-21.44311,2.02328,0.0973,2.14824,9.31022,4.3403,22.05017,4.1213,13.33587,8.20192,15.61979,18.5148,18.74721,13.05492,1.11312,22.636.7173,22.74308,4.7196,0.16222,3.35594-7.47664,1.78876-26.12124,6.10407-10.13275,2.34433-10.95539,9.373-13.05171,23.4329-2.03784,13.68768-2.12714,21.29431-4.694,21.22077-3.35217-.09731-2.76807-3.81619-4.14232-17.99729-1.55765-16.13723-13.97654-27.64621-29.84978-30.05816h0Z"/>
  <path id="path1082-2-5-2-2" class="cls-1" d="M157.70524,272.14707c0-159.505-1.89509-134.85752.77883-140.38993,4.53014-9.35826-1.05462-34.62894,9.91048-29.3201,9.31337,4.50868,9.17871,3.51761,9.17871,67.53471V226.3045l3.50306-3.23562c9.17058-8.46969,30.44688-19.72737,44.2693-23.42448,10.67471-2.85484,34.08463-3.82561,45.97943-1.90637,22.941,3.70083,42.95343,8.81481,60.115,26.181,14.93058,15.11027,22.07953,26.73883,26.99741,46.78856,4.25429,17.35185,6.36685,18.869,6.38147,94.61742,0.01621,67.57087-.16228,71.54848-2.37861,75.26491-3.026,4.96247-9.72875,8.17852-17.04632,8.17852-6.97363,0-11.75042-3.398-15.07987-10.72835-2.20016-4.8444-2.36078-9.72937-2.38673-72.19269,0-62.52693-.21094-67.6543-2.549-76.84992a89.05706,89.05706,0,0,0-6.05041-16.44671c-7.77034-14.50643-26.43925-40.39852-64.98585-41.06723-38.5466-.66846-56.12353-10.00073-72.164,8.12927-0.16222,82.82472-26.65341,217.91844-24.476,32.53392ZM501.79492,446.42145c-29.41168-7.59128-61.45355-30.53968-75.3814-53.98991-20.20227-34.01544-25.24186-66.75459-15.64294-101.63112,6.85362-24.905,27.38033-53.05207,50.07631-68.66788,9.242-6.35833,28.54527-15.15285,39.67422-18.07479,14.44219-3.79218,37.44331-4.63077,51.96336-1.89422,48.36129,9.1124,87.59264,46.74547,99.88653,95.8187,3.35385,13.39256,3.00825,42.18333-.68146,57.153-10.36964,42.00608-44.55169,76.48748-89.36606,90.14839-12.19009,3.71639-47.92983,4.38884-60.52229,1.13911Zm49.68538-36.51278c28.32792-5.94784,55.47129-32.321,63.25138-61.45738,3.38464-12.67507,3.69775-34.32415.66522-45.90465-6.31166-24.09146-24.01361-45.13694-47.35542-56.29635-13.99607-6.69258-21.68682-8.32089-38.85489-8.22582-21.67707.12974-35.45733,4.53171-50.826,16.27291-13.85808,10.58775-28.73517,33.10359-32.54,49.24782-2.51815,10.68629-2.52148,32.60075-.00483,43.30907,7.27712,30.9643,37.39787,58.80085,69.3569,64.09609,7.63413,1.26379,28.12193.67655,36.30765-1.04164Zm240.23437,37.47588c-28.79682-5.64977-64.77163-29.98465-79.67464-53.89507a151.443,151.443,0,0,1-18.11561-41.38835c-4.5951-17.64451-4.61126-42.66586,0-60.10759a131.81363,131.81363,0,0,1,20.21522-42.1759c8.6919-11.785,27.41758-29.25893,37.94462-35.40758,46.78264-27.32162,98.6097-23.85254,143.04769,9.57515l10.54329,7.93071L906.308,171.126l0.63281-60.79016,3.53717-4.63667a16.24461,16.24461,0,0,1,16.98954-6.13156c5.94819,1.70532,11.76674,5.04245,13.04357,7.47962,0.66522,1.26067,1.41157,51.87978,1.74418,117.50789,0.61656,122.21238.6004,122.52608-5.32521,138.37833-16.25456,43.44128-51.64529,74.82223-94.7253,83.9886-9.57625,2.03757-40.96586,2.325-50.4609.46248h-0.02932Zm49.00059-37.48922a110.50981,110.50981,0,0,0,17.14858-6.59229c18.05721-8.81059,40.03928-35.17659,45.60784-54.69921,1.5901-5.59257,2.12065-12.46936,2.085-27.22853,0-18.47883-.27583-20.35919-3.6361-29.30078-7.34035-19.5526-21.82636-36.155-41.23682-47.26094-12.31013-7.04313-20.37093-9.73434-33.59133-11.21338-20.40342-2.28268-40.48877,1.79494-56.62165,11.49488-15.48546,9.31022-34.67362,34.53386-40.13991,52.76413-3.54846,11.83727-3.85841,36.84454-.61656,48.995a85.93966,85.93966,0,0,0,16.04037,31.48665c10.93422,13.51414,32.64548,27.76179,47.94924,31.46662,10.31278,2.49661,37.32806,2.54708,47.00324.09731Z"/>
  <path id="path2892-1-6-9-81" class="cls-1" d="M158.93185,445.32442s-4.165-2.98183-5.03638-4.51017c-0.87619-1.5283-.24333-89.62151-0.24333-89.62151-0.16222-54.46994-.98978-92.44791-2.106-96.82808a32.7477,32.7477,0,0,0-5.81681-11.60207c-8.0267-8.895-13.74611-10.227-43.91877-10.227-28.1299,0-28.15264-.00371-32.56109-4.9558-7.806-8.77348-4.41491-25.59721,6.1705-30.6221,2.73557-1.3045,17.95335-2.48247,37.70778-2.93654,20.88371-.43326,34.01648-1.53648,35.55791-2.867,4.56746-3.94171,6.08613-15.69777,6.09423-47.225,0.00973-34.35016,1.26557-39.95784,9.85527-44.03249,7.51238-3.56613,14.66289-3.17645,20.97289,2.68871,5.24894,6.75941,4.63563,29.80758,4.85461,43.85721,0.42187,29.72982,1.13576,38.77738,3.2483,42.141,2.635,4.19523,9.64111,6.10338,38.87274,7.189,29.23165,1.08539,35.8386-.37979,41.498,5.73542,5.59938,6.78244,5.96772,20.42308.7626,28.02871-3.57608,5.22665-23.22985,2.9967-34.27124,3.244-31.06022.70262-31.26953,0.70262-37.91542,6.01322-3.67667,2.9197-7.62266,7.543-8.77465,10.27579-1.44406,3.43468-2.41756,33.82231-3.14773,98.629-0.58411,51.515-.63281,92.00523-1.77181,93.93312-1.152,1.92866-2.59283,2.39335-5.807,4.43-8.11757,5.15682-17.90141,4.83353-24.17583-.78681Z"/>
</svg>
